<?xml version="1.0" encoding="UTF-8" standalone="no"?>
<!DOCTYPE svg PUBLIC "-//W3C//DTD SVG 1.1//EN" "http://www.w3.org/Graphics/SVG/1.1/DTD/svg11.dtd">
<svg xmlns="http://www.w3.org/2000/svg" version="1.1" viewBox="0.00 0.00 120.00 200.00">
<g stroke-width="2.00" fill="none" stroke-linecap="butt">
<path stroke="#808080" vector-effect="non-scaling-stroke" d="
  M 55.51 152.93
  Q 55.20 152.80 55.20 152.46
  L 55.20 53.58
  A 0.97 0.96 0.0 0 1 56.17 52.62
  L 109.98 52.62
  A 1.03 1.03 0.0 0 0 110.99 51.78
  Q 111.19 50.71 111.19 49.59
  Q 111.17 31.42 111.17 13.21
  A 1.03 0.93 -89.7 0 0 110.25 12.18
  L 10.66 11.42
  A 1.42 1.42 0.0 0 0 9.23 12.84
  L 9.29 192.77
  Q 9.29 194.12 10.64 194.12
  L 109.76 194.12
  Q 111.18 194.12 111.18 192.71
  L 111.18 154.55
  A 1.37 1.36 0.0 0 0 109.81 153.19
  Q 82.23 153.17 56.89 153.18
  Q 56.18 153.18 55.51 152.93"
/>
<path stroke="#e5e2db" vector-effect="non-scaling-stroke" d="
  M 89.7297 127.2347
  A 24.34 23.57 88.8 0 0 112.7848 102.4064
  A 24.34 23.57 88.8 0 0 88.7103 78.5653
  A 24.34 23.57 88.8 0 0 65.6552 103.3936
  A 24.34 23.57 88.8 0 0 89.7297 127.2347"
/>
</g>
<path fill="#ffffff" d="
  M 0.00 0.00
  L 120.00 0.00
  L 120.00 200.00
  L 0.00 200.00
  L 0.00 0.00
  Z
  M 55.51 152.93
  Q 55.20 152.80 55.20 152.46
  L 55.20 53.58
  A 0.97 0.96 0.0 0 1 56.17 52.62
  L 109.98 52.62
  A 1.03 1.03 0.0 0 0 110.99 51.78
  Q 111.19 50.71 111.19 49.59
  Q 111.17 31.42 111.17 13.21
  A 1.03 0.93 -89.7 0 0 110.25 12.18
  L 10.66 11.42
  A 1.42 1.42 0.0 0 0 9.23 12.84
  L 9.29 192.77
  Q 9.29 194.12 10.64 194.12
  L 109.76 194.12
  Q 111.18 194.12 111.18 192.71
  L 111.18 154.55
  A 1.37 1.36 0.0 0 0 109.81 153.19
  Q 82.23 153.17 56.89 153.18
  Q 56.18 153.18 55.51 152.93
  Z
  M 89.7297 127.2347
  A 24.34 23.57 88.8 0 0 112.7848 102.4064
  A 24.34 23.57 88.8 0 0 88.7103 78.5653
  A 24.34 23.57 88.8 0 0 65.6552 103.3936
  A 24.34 23.57 88.8 0 0 89.7297 127.2347
  Z"
/>
<path fill="#000000" d="
  M 55.51 152.93
  Q 56.18 153.18 56.89 153.18
  Q 82.23 153.17 109.81 153.19
  A 1.37 1.36 0.0 0 1 111.18 154.55
  L 111.18 192.71
  Q 111.18 194.12 109.76 194.12
  L 10.64 194.12
  Q 9.29 194.12 9.29 192.77
  L 9.23 12.84
  A 1.42 1.42 0.0 0 1 10.66 11.42
  L 110.25 12.18
  A 1.03 0.93 -89.7 0 1 111.17 13.21
  Q 111.17 31.42 111.19 49.59
  Q 111.19 50.71 110.99 51.78
  A 1.03 1.03 0.0 0 1 109.98 52.62
  L 56.17 52.62
  A 0.97 0.96 -0.0 0 0 55.20 53.58
  L 55.20 152.46
  Q 55.20 152.80 55.51 152.93
  Z"
/>
<ellipse fill="#cac5b7" cx="0.00" cy="0.00" transform="translate(89.22,102.90) rotate(88.8)" rx="24.34" ry="23.57"/>
</svg>
