<?xml version="1.0" encoding="UTF-8" standalone="no"?>
<!DOCTYPE svg PUBLIC "-//W3C//DTD SVG 1.1//EN" "http://www.w3.org/Graphics/SVG/1.1/DTD/svg11.dtd">
<svg xmlns="http://www.w3.org/2000/svg" version="1.1" viewBox="0.00 0.00 527.00 102.00">
<g stroke-width="2.00" fill="none" stroke-linecap="butt">
<path stroke="#808080" vector-effect="non-scaling-stroke" d="
  M 201.91 41.12
  C 205.55 39.41 209.96 41.00 212.87 43.32
  Q 213.68 43.96 214.14 43.04
  L 218.66 33.95
  Q 218.91 33.44 218.41 33.17
  C 207.14 26.93 188.44 26.99 186.33 43.63
  C 185.40 50.97 188.32 56.97 195.43 59.38
  Q 199.81 60.87 204.20 62.71
  Q 205.99 63.45 206.77 65.06
  C 208.47 68.55 205.49 71.94 201.94 71.96
  Q 195.41 71.99 190.04 67.14
  Q 189.67 66.81 189.44 67.25
  L 184.23 77.32
  A 0.45 0.45 0.0 0 0 184.40 77.91
  Q 187.76 79.97 191.06 81.26
  C 203.63 86.19 219.67 82.70 220.88 66.96
  Q 221.72 55.99 211.20 51.72
  Q 207.57 50.24 203.57 49.05
  Q 202.00 48.58 200.90 47.41
  C 199.09 45.51 199.45 42.28 201.91 41.12"
/>
<path stroke="#808080" vector-effect="non-scaling-stroke" d="
  M 452.13 63.96
  Q 450.69 70.47 444.29 71.74
  Q 435.80 73.44 431.15 66.95
  C 426.13 59.94 427.18 46.50 435.45 42.19
  C 441.50 39.03 448.41 41.88 451.44 47.84
  Q 451.81 48.58 452.57 48.25
  L 464.03 43.34
  Q 464.65 43.07 464.29 42.49
  Q 456.06 29.44 441.72 29.39
  Q 423.36 29.33 416.64 45.43
  C 413.82 52.18 413.98 60.64 416.65 67.55
  C 420.93 78.66 431.46 84.45 443.21 83.58
  C 459.95 82.35 466.89 69.32 467.02 53.83
  Q 467.02 53.25 466.45 53.25
  L 441.57 53.25
  Q 440.88 53.25 440.88 53.93
  L 440.88 62.82
  Q 440.88 63.25 441.32 63.25
  L 451.56 63.25
  Q 452.29 63.25 452.13 63.96"
/>
<path stroke="#808080" vector-effect="non-scaling-stroke" d="
  M 314.7196 56.2255
  A 27.59 26.95 -0.3 0 0 286.9889 29.4204
  A 27.59 26.95 -0.3 0 0 259.5404 56.5145
  A 27.59 26.95 -0.3 0 0 287.2711 83.3196
  A 27.59 26.95 -0.3 0 0 314.7196 56.2255"
/>
<path stroke="#808080" vector-effect="non-scaling-stroke" d="
  M 29.06 70.50
  A 0.31 0.31 0.0 0 1 28.75 70.19
  L 28.75 42.43
  A 0.31 0.31 0.0 0 1 29.06 42.12
  L 44.19 42.14
  A 0.31 0.31 0.0 0 0 44.50 41.83
  L 44.50 31.10
  A 0.31 0.31 0.0 0 0 44.19 30.79
  L 16.18 30.60
  A 0.31 0.31 0.0 0 0 15.87 30.91
  L 15.89 81.69
  A 0.31 0.31 0.0 0 0 16.20 82.00
  L 44.19 82.00
  A 0.31 0.31 0.0 0 0 44.50 81.69
  L 44.50 70.81
  A 0.31 0.31 0.0 0 0 44.19 70.50
  L 29.06 70.50"
/>
<path stroke="#808080" vector-effect="non-scaling-stroke" d="
  M 86.44 30.63
  A 0.48 0.48 0.0 0 0 85.99 30.94
  L 74.64 60.97
  A 0.48 0.48 0.0 0 1 73.74 60.97
  L 62.41 30.94
  A 0.48 0.48 0.0 0 0 61.96 30.63
  L 48.70 30.62
  A 0.48 0.48 0.0 0 0 48.26 31.28
  L 68.80 81.71
  A 0.48 0.48 0.0 0 0 69.24 82.01
  L 79.18 81.97
  A 0.48 0.48 0.0 0 0 79.62 81.67
  L 100.13 31.26
  A 0.48 0.48 0.0 0 0 99.68 30.60
  L 86.44 30.63"
/>
<path stroke="#808080" vector-effect="non-scaling-stroke" d="
  M 117.49 42.44
  A 0.31 0.31 0.0 0 1 117.80 42.13
  L 132.93 42.12
  A 0.31 0.31 0.0 0 0 133.24 41.81
  L 133.26 31.09
  A 0.31 0.31 0.0 0 0 132.95 30.78
  L 104.94 30.60
  A 0.31 0.31 0.0 0 0 104.63 30.91
  L 104.62 81.69
  A 0.31 0.31 0.0 0 0 104.93 82.00
  L 132.94 82.00
  A 0.31 0.31 0.0 0 0 133.25 81.69
  L 133.25 70.81
  A 0.31 0.31 0.0 0 0 132.94 70.50
  L 117.81 70.50
  A 0.31 0.31 0.0 0 1 117.50 70.19
  L 117.49 42.44"
/>
<path stroke="#808080" vector-effect="non-scaling-stroke" d="
  M 153.74 64.95
  Q 153.86 61.66 155.59 64.46
  L 166.03 81.46
  Q 166.36 82.00 167.00 82.00
  L 181.27 82.00
  Q 182.03 82.00 181.58 81.39
  L 168.04 62.96
  Q 167.61 62.36 168.29 62.09
  Q 177.72 58.25 177.27 46.25
  C 176.80 33.92 168.72 30.32 157.73 30.56
  Q 148.90 30.75 141.48 30.58
  A 0.71 0.71 0.0 0 0 140.75 31.29
  L 140.75 81.50
  Q 140.75 82.00 141.25 82.00
  L 153.22 82.00
  A 0.47 0.47 0.0 0 0 153.69 81.52
  Q 153.45 73.10 153.74 64.95"
/>
<path stroke="#808080" vector-effect="non-scaling-stroke" d="
  M 247.00 42.51
  A 0.38 0.38 0.0 0 1 247.38 42.13
  L 257.35 42.10
  A 0.38 0.38 0.0 0 0 257.73 41.72
  L 257.76 31.07
  A 0.38 0.38 0.0 0 0 257.38 30.69
  L 223.76 30.70
  A 0.38 0.38 0.0 0 0 223.38 31.08
  L 223.37 41.75
  A 0.38 0.38 0.0 0 0 223.75 42.13
  L 233.75 42.12
  A 0.38 0.38 0.0 0 1 234.13 42.50
  L 234.15 81.62
  A 0.38 0.38 0.0 0 0 234.53 82.00
  L 246.62 82.00
  A 0.38 0.38 0.0 0 0 247.00 81.62
  L 247.00 42.51"
/>
<path stroke="#808080" vector-effect="non-scaling-stroke" d="
  M 334.29 63.38
  Q 334.77 63.44 335.03 63.85
  Q 340.82 73.03 345.96 81.67
  A 0.71 0.68 -15.0 0 0 346.56 82.00
  L 361.31 82.01
  A 0.33 0.33 0.0 0 0 361.58 81.49
  L 347.85 62.92
  A 0.56 0.56 0.0 0 1 348.12 62.06
  C 355.31 59.53 357.78 52.31 357.11 44.98
  C 356.34 36.55 350.89 30.88 342.41 30.74
  Q 331.48 30.56 321.00 30.65
  A 0.38 0.38 0.0 0 0 320.62 31.03
  L 320.62 81.31
  Q 320.62 82.00 321.31 82.00
  L 332.87 82.00
  Q 333.50 82.00 333.50 81.38
  L 333.50 64.07
  Q 333.50 63.28 334.29 63.38"
/>
<path stroke="#808080" vector-effect="non-scaling-stroke" d="
  M 388.20 47.40
  A 0.31 0.31 0.0 0 1 388.78 47.40
  L 400.20 81.79
  A 0.31 0.31 0.0 0 0 400.49 82.00
  L 414.19 81.99
  A 0.31 0.31 0.0 0 0 414.48 81.57
  L 396.13 30.82
  A 0.31 0.31 0.0 0 0 395.84 30.62
  L 381.15 30.63
  A 0.31 0.31 0.0 0 0 380.86 30.83
  L 362.54 81.58
  A 0.31 0.31 0.0 0 0 362.83 81.99
  L 376.45 82.01
  A 0.31 0.31 0.0 0 0 376.74 81.80
  L 388.20 47.40"
/>
<path stroke="#808080" vector-effect="non-scaling-stroke" d="
  M 486.05 70.50
  A 0.30 0.30 0.0 0 1 485.75 70.20
  L 485.75 42.42
  A 0.30 0.30 0.0 0 1 486.05 42.12
  L 501.20 42.14
  A 0.30 0.30 0.0 0 0 501.50 41.84
  L 501.50 31.09
  A 0.30 0.30 0.0 0 0 501.20 30.79
  L 473.17 30.59
  A 0.30 0.30 0.0 0 0 472.87 30.89
  L 472.89 81.70
  A 0.30 0.30 0.0 0 0 473.19 82.00
  L 501.20 82.00
  A 0.30 0.30 0.0 0 0 501.50 81.70
  L 501.50 70.80
  A 0.30 0.30 0.0 0 0 501.20 70.50
  L 486.05 70.50"
/>
<path stroke="#e5e2db" vector-effect="non-scaling-stroke" d="
  M 38.3858 63.1499
  A 6.83 6.61 89.7 0 0 44.9599 56.2854
  A 6.83 6.61 89.7 0 0 38.3142 49.4901
  A 6.83 6.61 89.7 0 0 31.7401 56.3546
  A 6.83 6.61 89.7 0 0 38.3858 63.1499"
/>
<path stroke="#e5e2db" vector-effect="non-scaling-stroke" d="
  M 127.4657 63.1680
  A 6.84 6.62 86.6 0 0 133.6683 55.9474
  A 6.84 6.62 86.6 0 0 126.6543 49.5120
  A 6.84 6.62 86.6 0 0 120.4517 56.7326
  A 6.84 6.62 86.6 0 0 127.4657 63.1680"
/>
<path stroke="#e5e2db" vector-effect="non-scaling-stroke" d="
  M 495.3223 63.1598
  A 6.83 6.62 90.4 0 0 501.9898 56.3762
  A 6.83 6.62 90.4 0 0 495.4177 49.5002
  A 6.83 6.62 90.4 0 0 488.7502 56.2838
  A 6.83 6.62 90.4 0 0 495.3223 63.1598"
/>
<path stroke="#e5e2db" vector-effect="non-scaling-stroke" d="
  M 395.21 72.96
  A 6.69 6.69 0.0 0 0 388.52 66.27
  A 6.69 6.69 0.0 0 0 381.83 72.96
  A 6.69 6.69 0.0 0 0 388.52 79.65
  A 6.69 6.69 0.0 0 0 395.21 72.96"
/>
<path stroke="#808080" vector-effect="non-scaling-stroke" d="
  M 301.4882 56.1343
  A 14.37 14.04 -0.9 0 0 286.8995 42.3217
  A 14.37 14.04 -0.9 0 0 272.7518 56.5857
  A 14.37 14.04 -0.9 0 0 287.3405 70.3983
  A 14.37 14.04 -0.9 0 0 301.4882 56.1343"
/>
<path stroke="#808080" vector-effect="non-scaling-stroke" d="
  M 153.61 41.22
  L 153.63 52.90
  A 0.24 0.24 0.0 0 0 153.87 53.14
  L 158.53 53.13
  A 5.80 5.55 -0.1 0 0 164.32 47.57
  L 164.32 46.51
  A 5.80 5.55 -0.1 0 0 158.51 40.97
  L 153.85 40.98
  A 0.24 0.24 0.0 0 0 153.61 41.22"
/>
<path stroke="#808080" vector-effect="non-scaling-stroke" d="
  M 333.47 41.27
  L 333.53 52.89
  A 0.25 0.25 0.0 0 0 333.78 53.14
  L 338.54 53.11
  A 5.71 5.62 -0.3 0 0 344.22 47.46
  L 344.22 46.58
  A 5.71 5.62 -0.3 0 0 338.48 40.99
  L 333.72 41.02
  A 0.25 0.25 0.0 0 0 333.47 41.27"
/>
</g>
<path fill="#ffffff" d="
  M 0.00 0.00
  L 527.00 0.00
  L 527.00 102.00
  L 0.00 102.00
  L 0.00 0.00
  Z
  M 201.91 41.12
  C 205.55 39.41 209.96 41.00 212.87 43.32
  Q 213.68 43.96 214.14 43.04
  L 218.66 33.95
  Q 218.91 33.44 218.41 33.17
  C 207.14 26.93 188.44 26.99 186.33 43.63
  C 185.40 50.97 188.32 56.97 195.43 59.38
  Q 199.81 60.87 204.20 62.71
  Q 205.99 63.45 206.77 65.06
  C 208.47 68.55 205.49 71.94 201.94 71.96
  Q 195.41 71.99 190.04 67.14
  Q 189.67 66.81 189.44 67.25
  L 184.23 77.32
  A 0.45 0.45 0.0 0 0 184.40 77.91
  Q 187.76 79.97 191.06 81.26
  C 203.63 86.19 219.67 82.70 220.88 66.96
  Q 221.72 55.99 211.20 51.72
  Q 207.57 50.24 203.57 49.05
  Q 202.00 48.58 200.90 47.41
  C 199.09 45.51 199.45 42.28 201.91 41.12
  Z
  M 452.13 63.96
  Q 450.69 70.47 444.29 71.74
  Q 435.80 73.44 431.15 66.95
  C 426.13 59.94 427.18 46.50 435.45 42.19
  C 441.50 39.03 448.41 41.88 451.44 47.84
  Q 451.81 48.58 452.57 48.25
  L 464.03 43.34
  Q 464.65 43.07 464.29 42.49
  Q 456.06 29.44 441.72 29.39
  Q 423.36 29.33 416.64 45.43
  C 413.82 52.18 413.98 60.64 416.65 67.55
  C 420.93 78.66 431.46 84.45 443.21 83.58
  C 459.95 82.35 466.89 69.32 467.02 53.83
  Q 467.02 53.25 466.45 53.25
  L 441.57 53.25
  Q 440.88 53.25 440.88 53.93
  L 440.88 62.82
  Q 440.88 63.25 441.32 63.25
  L 451.56 63.25
  Q 452.29 63.25 452.13 63.96
  Z
  M 314.7196 56.2255
  A 27.59 26.95 -0.3 0 0 286.9889 29.4204
  A 27.59 26.95 -0.3 0 0 259.5404 56.5145
  A 27.59 26.95 -0.3 0 0 287.2711 83.3196
  A 27.59 26.95 -0.3 0 0 314.7196 56.2255
  Z
  M 29.06 70.50
  A 0.31 0.31 0.0 0 1 28.75 70.19
  L 28.75 42.43
  A 0.31 0.31 0.0 0 1 29.06 42.12
  L 44.19 42.14
  A 0.31 0.31 0.0 0 0 44.50 41.83
  L 44.50 31.10
  A 0.31 0.31 0.0 0 0 44.19 30.79
  L 16.18 30.60
  A 0.31 0.31 0.0 0 0 15.87 30.91
  L 15.89 81.69
  A 0.31 0.31 0.0 0 0 16.20 82.00
  L 44.19 82.00
  A 0.31 0.31 0.0 0 0 44.50 81.69
  L 44.50 70.81
  A 0.31 0.31 0.0 0 0 44.19 70.50
  L 29.06 70.50
  Z
  M 86.44 30.63
  A 0.48 0.48 0.0 0 0 85.99 30.94
  L 74.64 60.97
  A 0.48 0.48 0.0 0 1 73.74 60.97
  L 62.41 30.94
  A 0.48 0.48 0.0 0 0 61.96 30.63
  L 48.70 30.62
  A 0.48 0.48 0.0 0 0 48.26 31.28
  L 68.80 81.71
  A 0.48 0.48 0.0 0 0 69.24 82.01
  L 79.18 81.97
  A 0.48 0.48 0.0 0 0 79.62 81.67
  L 100.13 31.26
  A 0.48 0.48 0.0 0 0 99.68 30.60
  L 86.44 30.63
  Z
  M 117.49 42.44
  A 0.31 0.31 0.0 0 1 117.80 42.13
  L 132.93 42.12
  A 0.31 0.31 0.0 0 0 133.24 41.81
  L 133.26 31.09
  A 0.31 0.31 0.0 0 0 132.95 30.78
  L 104.94 30.60
  A 0.31 0.31 0.0 0 0 104.63 30.91
  L 104.62 81.69
  A 0.31 0.31 0.0 0 0 104.93 82.00
  L 132.94 82.00
  A 0.31 0.31 0.0 0 0 133.25 81.69
  L 133.25 70.81
  A 0.31 0.31 0.0 0 0 132.94 70.50
  L 117.81 70.50
  A 0.31 0.31 0.0 0 1 117.50 70.19
  L 117.49 42.44
  Z
  M 153.74 64.95
  Q 153.86 61.66 155.59 64.46
  L 166.03 81.46
  Q 166.36 82.00 167.00 82.00
  L 181.27 82.00
  Q 182.03 82.00 181.58 81.39
  L 168.04 62.96
  Q 167.61 62.36 168.29 62.09
  Q 177.72 58.25 177.27 46.25
  C 176.80 33.92 168.72 30.32 157.73 30.56
  Q 148.90 30.75 141.48 30.58
  A 0.71 0.71 0.0 0 0 140.75 31.29
  L 140.75 81.50
  Q 140.75 82.00 141.25 82.00
  L 153.22 82.00
  A 0.47 0.47 0.0 0 0 153.69 81.52
  Q 153.45 73.10 153.74 64.95
  Z
  M 247.00 42.51
  A 0.38 0.38 0.0 0 1 247.38 42.13
  L 257.35 42.10
  A 0.38 0.38 0.0 0 0 257.73 41.72
  L 257.76 31.07
  A 0.38 0.38 0.0 0 0 257.38 30.69
  L 223.76 30.70
  A 0.38 0.38 0.0 0 0 223.38 31.08
  L 223.37 41.75
  A 0.38 0.38 0.0 0 0 223.75 42.13
  L 233.75 42.12
  A 0.38 0.38 0.0 0 1 234.13 42.50
  L 234.15 81.62
  A 0.38 0.38 0.0 0 0 234.53 82.00
  L 246.62 82.00
  A 0.38 0.38 0.0 0 0 247.00 81.62
  L 247.00 42.51
  Z
  M 334.29 63.38
  Q 334.77 63.44 335.03 63.85
  Q 340.82 73.03 345.96 81.67
  A 0.71 0.68 -15.0 0 0 346.56 82.00
  L 361.31 82.01
  A 0.33 0.33 0.0 0 0 361.58 81.49
  L 347.85 62.92
  A 0.56 0.56 0.0 0 1 348.12 62.06
  C 355.31 59.53 357.78 52.31 357.11 44.98
  C 356.34 36.55 350.89 30.88 342.41 30.74
  Q 331.48 30.56 321.00 30.65
  A 0.38 0.38 0.0 0 0 320.62 31.03
  L 320.62 81.31
  Q 320.62 82.00 321.31 82.00
  L 332.87 82.00
  Q 333.50 82.00 333.50 81.38
  L 333.50 64.07
  Q 333.50 63.28 334.29 63.38
  Z
  M 388.20 47.40
  A 0.31 0.31 0.0 0 1 388.78 47.40
  L 400.20 81.79
  A 0.31 0.31 0.0 0 0 400.49 82.00
  L 414.19 81.99
  A 0.31 0.31 0.0 0 0 414.48 81.57
  L 396.13 30.82
  A 0.31 0.31 0.0 0 0 395.84 30.62
  L 381.15 30.63
  A 0.31 0.31 0.0 0 0 380.86 30.83
  L 362.54 81.58
  A 0.31 0.31 0.0 0 0 362.83 81.99
  L 376.45 82.01
  A 0.31 0.31 0.0 0 0 376.74 81.80
  L 388.20 47.40
  Z
  M 486.05 70.50
  A 0.30 0.30 0.0 0 1 485.75 70.20
  L 485.75 42.42
  A 0.30 0.30 0.0 0 1 486.05 42.12
  L 501.20 42.14
  A 0.30 0.30 0.0 0 0 501.50 41.84
  L 501.50 31.09
  A 0.30 0.30 0.0 0 0 501.20 30.79
  L 473.17 30.59
  A 0.30 0.30 0.0 0 0 472.87 30.89
  L 472.89 81.70
  A 0.30 0.30 0.0 0 0 473.19 82.00
  L 501.20 82.00
  A 0.30 0.30 0.0 0 0 501.50 81.70
  L 501.50 70.80
  A 0.30 0.30 0.0 0 0 501.20 70.50
  L 486.05 70.50
  Z
  M 38.3858 63.1499
  A 6.83 6.61 89.7 0 0 44.9599 56.2854
  A 6.83 6.61 89.7 0 0 38.3142 49.4901
  A 6.83 6.61 89.7 0 0 31.7401 56.3546
  A 6.83 6.61 89.7 0 0 38.3858 63.1499
  Z
  M 127.4657 63.1680
  A 6.84 6.62 86.6 0 0 133.6683 55.9474
  A 6.84 6.62 86.6 0 0 126.6543 49.5120
  A 6.84 6.62 86.6 0 0 120.4517 56.7326
  A 6.84 6.62 86.6 0 0 127.4657 63.1680
  Z
  M 495.3223 63.1598
  A 6.83 6.62 90.4 0 0 501.9898 56.3762
  A 6.83 6.62 90.4 0 0 495.4177 49.5002
  A 6.83 6.62 90.4 0 0 488.7502 56.2838
  A 6.83 6.62 90.4 0 0 495.3223 63.1598
  Z
  M 395.21 72.96
  A 6.69 6.69 0.0 0 0 388.52 66.27
  A 6.69 6.69 0.0 0 0 381.83 72.96
  A 6.69 6.69 0.0 0 0 388.52 79.65
  A 6.69 6.69 0.0 0 0 395.21 72.96
  Z"
/>
<path fill="#000000" d="
  M 201.91 41.12
  C 199.45 42.28 199.09 45.51 200.90 47.41
  Q 202.00 48.58 203.57 49.05
  Q 207.57 50.24 211.20 51.72
  Q 221.72 55.99 220.88 66.96
  C 219.67 82.70 203.63 86.19 191.06 81.26
  Q 187.76 79.97 184.40 77.91
  A 0.45 0.45 0.0 0 1 184.23 77.32
  L 189.44 67.25
  Q 189.67 66.81 190.04 67.14
  Q 195.41 71.99 201.94 71.96
  C 205.49 71.94 208.47 68.55 206.77 65.06
  Q 205.99 63.45 204.20 62.71
  Q 199.81 60.87 195.43 59.38
  C 188.32 56.97 185.40 50.97 186.33 43.63
  C 188.44 26.99 207.14 26.93 218.41 33.17
  Q 218.91 33.44 218.66 33.95
  L 214.14 43.04
  Q 213.68 43.96 212.87 43.32
  C 209.96 41.00 205.55 39.41 201.91 41.12
  Z"
/>
<path fill="#000000" d="
  M 451.56 63.25
  L 441.32 63.25
  Q 440.88 63.25 440.88 62.82
  L 440.88 53.93
  Q 440.88 53.25 441.57 53.25
  L 466.45 53.25
  Q 467.02 53.25 467.02 53.83
  C 466.89 69.32 459.95 82.35 443.21 83.58
  C 431.46 84.45 420.93 78.66 416.65 67.55
  C 413.98 60.64 413.82 52.18 416.64 45.43
  Q 423.36 29.33 441.72 29.39
  Q 456.06 29.44 464.29 42.49
  Q 464.65 43.07 464.03 43.34
  L 452.57 48.25
  Q 451.81 48.58 451.44 47.84
  C 448.41 41.88 441.50 39.03 435.45 42.19
  C 427.18 46.50 426.13 59.94 431.15 66.95
  Q 435.80 73.44 444.29 71.74
  Q 450.69 70.47 452.13 63.96
  Q 452.29 63.25 451.56 63.25
  Z"
/>
<path fill="#000000" d="
  M 314.7196 56.2255
  A 27.59 26.95 -0.3 0 1 287.2711 83.3196
  A 27.59 26.95 -0.3 0 1 259.5404 56.5145
  A 27.59 26.95 -0.3 0 1 286.9889 29.4204
  A 27.59 26.95 -0.3 0 1 314.7196 56.2255
  Z
  M 301.4882 56.1343
  A 14.37 14.04 -0.9 0 0 286.8995 42.3217
  A 14.37 14.04 -0.9 0 0 272.7518 56.5857
  A 14.37 14.04 -0.9 0 0 287.3405 70.3983
  A 14.37 14.04 -0.9 0 0 301.4882 56.1343
  Z"
/>
<path fill="#000000" d="
  M 29.06 70.50
  L 44.19 70.50
  A 0.31 0.31 0.0 0 1 44.50 70.81
  L 44.50 81.69
  A 0.31 0.31 0.0 0 1 44.19 82.00
  L 16.20 82.00
  A 0.31 0.31 0.0 0 1 15.89 81.69
  L 15.87 30.91
  A 0.31 0.31 0.0 0 1 16.18 30.60
  L 44.19 30.79
  A 0.31 0.31 0.0 0 1 44.50 31.10
  L 44.50 41.83
  A 0.31 0.31 0.0 0 1 44.19 42.14
  L 29.06 42.12
  A 0.31 0.31 0.0 0 0 28.75 42.43
  L 28.75 70.19
  A 0.31 0.31 0.0 0 0 29.06 70.50
  Z"
/>
<path fill="#000000" d="
  M 86.44 30.63
  L 99.68 30.60
  A 0.48 0.48 0.0 0 1 100.13 31.26
  L 79.62 81.67
  A 0.48 0.48 0.0 0 1 79.18 81.97
  L 69.24 82.01
  A 0.48 0.48 0.0 0 1 68.80 81.71
  L 48.26 31.28
  A 0.48 0.48 0.0 0 1 48.70 30.62
  L 61.96 30.63
  A 0.48 0.48 0.0 0 1 62.41 30.94
  L 73.74 60.97
  A 0.48 0.48 0.0 0 0 74.64 60.97
  L 85.99 30.94
  A 0.48 0.48 0.0 0 1 86.44 30.63
  Z"
/>
<path fill="#000000" d="
  M 117.49 42.44
  L 117.50 70.19
  A 0.31 0.31 0.0 0 0 117.81 70.50
  L 132.94 70.50
  A 0.31 0.31 0.0 0 1 133.25 70.81
  L 133.25 81.69
  A 0.31 0.31 0.0 0 1 132.94 82.00
  L 104.93 82.00
  A 0.31 0.31 0.0 0 1 104.62 81.69
  L 104.63 30.91
  A 0.31 0.31 0.0 0 1 104.94 30.60
  L 132.95 30.78
  A 0.31 0.31 0.0 0 1 133.26 31.09
  L 133.24 41.81
  A 0.31 0.31 0.0 0 1 132.93 42.12
  L 117.80 42.13
  A 0.31 0.31 0.0 0 0 117.49 42.44
  Z"
/>
<path fill="#000000" d="
  M 153.74 64.95
  Q 153.45 73.10 153.69 81.52
  A 0.47 0.47 0.0 0 1 153.22 82.00
  L 141.25 82.00
  Q 140.75 82.00 140.75 81.50
  L 140.75 31.29
  A 0.71 0.71 0.0 0 1 141.48 30.58
  Q 148.90 30.75 157.73 30.56
  C 168.72 30.32 176.80 33.92 177.27 46.25
  Q 177.72 58.25 168.29 62.09
  Q 167.61 62.36 168.04 62.96
  L 181.58 81.39
  Q 182.03 82.00 181.27 82.00
  L 167.00 82.00
  Q 166.36 82.00 166.03 81.46
  L 155.59 64.46
  Q 153.86 61.66 153.74 64.95
  Z
  M 153.61 41.22
  L 153.63 52.90
  A 0.24 0.24 0.0 0 0 153.87 53.14
  L 158.53 53.13
  A 5.80 5.55 -0.1 0 0 164.32 47.57
  L 164.32 46.51
  A 5.80 5.55 -0.1 0 0 158.51 40.97
  L 153.85 40.98
  A 0.24 0.24 0.0 0 0 153.61 41.22
  Z"
/>
<path fill="#000000" d="
  M 247.00 42.51
  L 247.00 81.62
  A 0.38 0.38 0.0 0 1 246.62 82.00
  L 234.53 82.00
  A 0.38 0.38 0.0 0 1 234.15 81.62
  L 234.13 42.50
  A 0.38 0.38 0.0 0 0 233.75 42.12
  L 223.75 42.13
  A 0.38 0.38 0.0 0 1 223.37 41.75
  L 223.38 31.08
  A 0.38 0.38 0.0 0 1 223.76 30.70
  L 257.38 30.69
  A 0.38 0.38 0.0 0 1 257.76 31.07
  L 257.73 41.72
  A 0.38 0.38 0.0 0 1 257.35 42.10
  L 247.38 42.13
  A 0.38 0.38 0.0 0 0 247.00 42.51
  Z"
/>
<path fill="#000000" d="
  M 334.29 63.38
  Q 333.50 63.28 333.50 64.07
  L 333.50 81.38
  Q 333.50 82.00 332.87 82.00
  L 321.31 82.00
  Q 320.62 82.00 320.62 81.31
  L 320.62 31.03
  A 0.38 0.38 0.0 0 1 321.00 30.65
  Q 331.48 30.56 342.41 30.74
  C 350.89 30.88 356.34 36.55 357.11 44.98
  C 357.78 52.31 355.31 59.53 348.12 62.06
  A 0.56 0.56 0.0 0 0 347.85 62.92
  L 361.58 81.49
  A 0.33 0.33 0.0 0 1 361.31 82.01
  L 346.56 82.00
  A 0.71 0.68 -15.0 0 1 345.96 81.67
  Q 340.82 73.03 335.03 63.85
  Q 334.77 63.44 334.29 63.38
  Z
  M 333.47 41.27
  L 333.53 52.89
  A 0.25 0.25 0.0 0 0 333.78 53.14
  L 338.54 53.11
  A 5.71 5.62 -0.3 0 0 344.22 47.46
  L 344.22 46.58
  A 5.71 5.62 -0.3 0 0 338.48 40.99
  L 333.72 41.02
  A 0.25 0.25 0.0 0 0 333.47 41.27
  Z"
/>
<path fill="#000000" d="
  M 388.20 47.40
  L 376.74 81.80
  A 0.31 0.31 0.0 0 1 376.45 82.01
  L 362.83 81.99
  A 0.31 0.31 0.0 0 1 362.54 81.58
  L 380.86 30.83
  A 0.31 0.31 0.0 0 1 381.15 30.63
  L 395.84 30.62
  A 0.31 0.31 0.0 0 1 396.13 30.82
  L 414.48 81.57
  A 0.31 0.31 0.0 0 1 414.19 81.99
  L 400.49 82.00
  A 0.31 0.31 0.0 0 1 400.20 81.79
  L 388.78 47.40
  A 0.31 0.31 0.0 0 0 388.20 47.40
  Z"
/>
<path fill="#000000" d="
  M 486.05 70.50
  L 501.20 70.50
  A 0.30 0.30 0.0 0 1 501.50 70.80
  L 501.50 81.70
  A 0.30 0.30 0.0 0 1 501.20 82.00
  L 473.19 82.00
  A 0.30 0.30 0.0 0 1 472.89 81.70
  L 472.87 30.89
  A 0.30 0.30 0.0 0 1 473.17 30.59
  L 501.20 30.79
  A 0.30 0.30 0.0 0 1 501.50 31.09
  L 501.50 41.84
  A 0.30 0.30 0.0 0 1 501.20 42.14
  L 486.05 42.12
  A 0.30 0.30 0.0 0 0 485.75 42.42
  L 485.75 70.20
  A 0.30 0.30 0.0 0 0 486.05 70.50
  Z"
/>
<path fill="#ffffff" d="
  M 153.61 41.22
  A 0.24 0.24 0.0 0 1 153.85 40.98
  L 158.51 40.97
  A 5.80 5.55 -0.1 0 1 164.32 46.51
  L 164.32 47.57
  A 5.80 5.55 -0.1 0 1 158.53 53.13
  L 153.87 53.14
  A 0.24 0.24 0.0 0 1 153.63 52.90
  L 153.61 41.22
  Z"
/>
<path fill="#ffffff" d="
  M 333.47 41.27
  A 0.25 0.25 0.0 0 1 333.72 41.02
  L 338.48 40.99
  A 5.71 5.62 -0.3 0 1 344.22 46.58
  L 344.22 47.46
  A 5.71 5.62 -0.3 0 1 338.54 53.11
  L 333.78 53.14
  A 0.25 0.25 0.0 0 1 333.53 52.89
  L 333.47 41.27
  Z"
/>
<ellipse fill="#ffffff" cx="0.00" cy="0.00" transform="translate(287.12,56.36) rotate(-0.9)" rx="14.37" ry="14.04"/>
<ellipse fill="#cac5b7" cx="0.00" cy="0.00" transform="translate(38.35,56.32) rotate(89.7)" rx="6.83" ry="6.61"/>
<ellipse fill="#cac5b7" cx="0.00" cy="0.00" transform="translate(127.06,56.34) rotate(86.6)" rx="6.84" ry="6.62"/>
<ellipse fill="#cac5b7" cx="0.00" cy="0.00" transform="translate(495.37,56.33) rotate(90.4)" rx="6.83" ry="6.62"/>
<circle fill="#cac5b7" cx="388.52" cy="72.96" r="6.69"/>
</svg>
